<?xml version="1.0" standalone="no"?>
<!DOCTYPE svg PUBLIC "-//W3C//DTD SVG 20010904//EN"
 "http://www.w3.org/TR/2001/REC-SVG-20010904/DTD/svg10.dtd">
<svg version="1.0" xmlns="http://www.w3.org/2000/svg"
 width="75.000000pt" height="75.000000pt" viewBox="0 0 300.000000 300.000000"
 preserveAspectRatio="xMidYMid meet">

<g transform="translate(0.000000,300.000000) scale(0.100000,-0.100000)"
fill="#000000" stroke="none">
<path d="M1242 2844 c-92 -20 -262 -78 -347 -119 -133 -64 -225 -133 -356
-264 -178 -178 -264 -316 -342 -552 -52 -156 -60 -225 -54 -455 4 -176 7 -210
31 -292 131 -464 444 -803 884 -956 154 -53 238 -66 442 -66 203 0 288 13 443
66 467 162 802 550 903 1044 13 66 15 121 11 289 -4 193 -6 213 -35 311 -116
399 -361 696 -721 875 -115 57 -241 100 -355 120 -113 19 -413 19 -504 -1z
m548 -179 c116 -29 272 -98 381 -171 93 -62 216 -179 290 -277 74 -99 161
-269 193 -380 54 -186 59 -445 12 -629 -22 -88 -89 -255 -122 -306 l-15 -23
-43 39 c-80 74 -269 174 -477 252 l-87 32 -57 -47 c-141 -115 -208 -140 -371
-140 l-121 0 -84 42 c-46 23 -113 65 -148 93 l-64 52 -111 -42 c-200 -77 -371
-169 -458 -248 -21 -19 -40 -33 -42 -31 -12 13 -98 215 -114 269 -80 264 -67
550 39 809 62 151 130 251 259 381 162 163 329 262 545 321 124 34 169 38 335
34 121 -4 178 -10 260 -30z"/>
<path d="M1394 2376 c-120 -28 -237 -103 -311 -201 -147 -193 -159 -447 -34
-696 103 -206 259 -332 426 -345 252 -21 512 264 556 607 30 230 -67 443 -257
565 -108 69 -260 97 -380 70z"/>
</g>
</svg>
